# xmcd
#
# Track frame offsets:
#	150
#	11751
#	25668
#	35000
#	43811
#	57318
#	67598
#	76665
#	89198
#	99110
#	108250
#	128649
#	140939
#	151494
#	160234
#	170504
#	180838
#	190534
#	202271
#	211781
#	224069
#	228118
#
# Disc length: 3167 seconds
#
# Revision: 1
# Processed by: cddbd v1.5.2PL0 Copyright (c) Steve Scherf et al.
# Submitted via: audiograbber 1.83.01
#
DISCID=270c5d16
DTITLE=Isley Brothers - Shout 
DYEAR=1959
DGENRE=Oldies
TTITLE0=When The Saints Go Marching In
TTITLE1=St. Louis Blues
TTITLE2=Yes, Indeed 
TTITLE3=How Deep Is The Ocean
TTITLE4=Ring-A-Ling-A-Ling (Let The Wedding Bells Ring)
TTITLE5=Rock Around The Clock
TTITLE6=He's Got The Whole World In His Hands
TTITLE7=That Lucky Old Sun (Just Rolls Around Heaven All Day)
TTITLE8=Respectable
TTITLE9=Without A Song
TTITLE10=Shout - Part 1 and 2 
TTITLE11=Turn To Me  (Mono)
TTITLE12=Not One Minute More
TTITLE13=I'm Gonna Knock On Your Door  (Mono)
TTITLE14=Shout - Part 1  (Mono Single)
TTITLE15=Shout - Part 2  (Mono Single)
TTITLE16=Respectable  (Mono Single)
TTITLE17=Gypsy Love Song (Slumber On, My Little Gypsy Sweet)
TTITLE18=Open Up Your Heart
TTITLE19=Tell Me Who
TTITLE20=Say You Love Me Too  (Rehearsal)
TTITLE21=Say You Love Me Too
EXTD=
EXTT0=
EXTT1=
EXTT2=
EXTT3=
EXTT4=
EXTT5=
EXTT6=
EXTT7=
EXTT8=
EXTT9=
EXTT10=
EXTT11=
EXTT12=
EXTT13=
EXTT14=
EXTT15=
EXTT16=
EXTT17=
EXTT18=
EXTT19=
EXTT20=
EXTT21=
PLAYORDER=
